<svg version="1.0" xmlns="http://www.w3.org/2000/svg" width="178.000000pt" height="179.000000pt" viewBox="0 0 178.000000 179.000000" preserveAspectRatio="xMidYMid meet" style="fill: #2d6e78;">

<g xmlns="http://www.w3.org/2000/svg" transform="translate(0.000000,179.000000) scale(0.100000,-0.100000)" stroke="none">
<path d="M710 1775 c-268 -54 -527 -266 -632 -517 -89 -211 -98 -430 -27 -643 48 -144 100 -226 219 -345 119 -119 198 -169 350 -222 93 -32 98 -33 270 -33 172 0 177 1 270 33 152 53 231 103 350 222 119 119 171 201 219 345 104 313 30 658 -192 892 -142 149 -290 233 -475 269 -90 17 -264 17 -352 -1z m68 -441 c19 -13 22 -24 22 -75 l0 -59 -35 0 c-34 0 -35 1 -35 40 l0 40 -55 0 -55 0 0 -154 0 -154 76 -4 c106 -5 104 0 104 -225 0 -227 2 -223 -125 -223 -106 0 -125 14 -125 90 l0 50 35 0 c33 0 35 -2 35 -35 l0 -35 55 0 55 0 0 155 0 155 -70 0 c-110 0 -110 -1 -110 229 0 228 -4 221 125 221 57 0 87 -5 103 -16z m438 -39 c22 -34 11 -88 -23 -115 -30 -24 -63 -26 -63 -5 0 8 4 15 9 15 5 0 17 7 26 16 15 15 14 17 -7 28 -29 15 -36 55 -12 73 27 20 52 16 70 -12z m-241 -122 l45 -68 0 68 0 67 35 0 35 0 0 -125 0 -125 -37 0 c-35 0 -41 4 -78 62 l-40 62 -3 -347 -2 -347 -35 0 -35 0 0 410 0 410 35 0 c32 0 38 -6 80 -67z m95 -298 c0 -73 -1 -75 -25 -75 -24 0 -25 2 -25 75 0 73 1 75 25 75 24 0 25 -2 25 -75z m40 -130 c17 -21 6 -30 -38 -30 -34 0 -37 -2 -37 -30 0 -28 2 -30 37 -27 42 3 60 -15 33 -35 -26 -18 -79 -16 -104 5 -11 9 -24 31 -27 49 -5 26 -1 37 19 57 30 30 96 36 117 11z m0 -195 c0 -16 -7 -20 -37 -21 -37 -1 -37 -2 -8 -8 42 -9 47 -41 6 -41 -41 0 -40 -18 1 -22 22 -2 34 -9 36 -20 3 -16 -5 -18 -57 -18 l-61 0 0 75 0 75 60 0 c53 0 60 -2 60 -20z"/>
</g>
</svg>