<svg version="1.0" xmlns="http://www.w3.org/2000/svg"
 width="3508.000000pt" height="2482.000000pt" viewBox="0 0 3508.000000 2482.000000"
 preserveAspectRatio="xMidYMid meet" style="fill: #2d6e78;">

<g transform="translate(0.000000,2482.000000) scale(0.100000,-0.100000)"
fill="" stroke="none">
<path d="M1240 17799 c-225 -47 -378 -128 -526 -281 -111 -113 -175 -226 -233
-408 -28 -90 -31 -273 -31 -2015 0 -1731 3 -1909 31 -2010 97 -355 363 -621
714 -713 52 -14 210 -17 1240 -22 l1180 -5 3 -2188 2 -2187 -1057 2 -1058 3
-5 660 -5 660 -520 0 -520 0 -3 -670 c-3 -655 3 -839 30 -925 24 -80 41 -127
54 -157 8 -17 14 -34 14 -37 0 -3 26 -48 57 -99 72 -116 219 -265 327 -330 42
-26 79 -47 81 -47 2 0 28 -11 57 -24 78 -35 134 -53 222 -70 68 -14 226 -16
1267 -16 1040 0 1199 2 1271 16 46 8 92 19 103 24 11 4 43 16 70 25 125 44
262 133 369 240 91 91 152 183 225 335 6 14 21 61 53 170 11 37 13 493 13
2430 0 2284 -1 2388 -18 2455 -48 182 -129 331 -249 456 -157 165 -326 258
-550 303 -67 14 -223 16 -1200 16 -618 0 -1129 4 -1136 8 -10 7 -12 350 -10
1683 l3 1674 1058 3 1057 2 0 -710 0 -710 525 0 526 0 -3 858 c-3 695 -6 864
-17 892 -8 19 -20 55 -28 80 -34 103 -58 149 -131 252 -60 85 -130 155 -207
208 -27 19 -52 37 -55 40 -5 5 -128 65 -165 80 -36 15 -129 39 -189 50 -77 13
-2572 12 -2636 -1z"/>
<path d="M20830 17795 c-81 -16 -135 -32 -180 -52 -236 -105 -405 -266 -501
-479 -45 -100 -46 -102 -66 -179 -17 -67 -18 -245 -18 -4720 l0 -4650 22 -75
c29 -97 42 -132 80 -205 138 -268 406 -456 706 -495 112 -14 2696 -14 2808 1
357 47 670 315 768 659 8 25 18 59 25 75 8 22 12 785 14 2873 l2 2842 -1105 0
-1105 0 0 -520 0 -520 575 0 575 0 5 -22 c3 -13 4 -995 3 -2183 l-3 -2160
-1162 -3 -1163 -2 0 4390 0 4390 1163 -2 1162 -3 3 -707 2 -708 525 0 526 0
-3 848 c-2 592 -7 856 -14 877 -7 17 -17 50 -25 75 -81 286 -308 521 -600 621
-146 49 -121 49 -1584 47 -1067 0 -1384 -4 -1435 -13z"/>
<path d="M30950 16506 c0 -747 -4 -1307 -9 -1310 -5 -3 -58 67 -117 157 -60
89 -112 164 -115 167 -5 5 -90 129 -119 175 -8 13 -42 63 -76 112 -79 114
-200 292 -286 418 -175 257 -265 389 -421 615 -32 47 -102 150 -155 230 -53
80 -99 147 -102 150 -6 6 -98 139 -120 174 -8 13 -49 73 -90 133 -41 59 -92
135 -114 168 -22 33 -48 70 -59 83 l-20 22 -484 0 -483 0 0 -6155 0 -6155 520
0 520 0 0 5173 c0 2875 4 5178 9 5186 6 10 16 2 38 -30 106 -155 123 -181 123
-189 0 -4 3 -10 8 -12 6 -2 981 -1458 1356 -2025 l121 -182 563 -1 562 0 0
2200 0 2200 -525 0 -525 0 0 -1304z"/>
<path d="M12590 17794 c-73 -9 -168 -39 -245 -78 -62 -31 -101 -62 -170 -131
-86 -86 -110 -122 -166 -250 -40 -94 -52 -305 -23 -418 85 -325 359 -538 692
-537 166 1 283 37 407 125 80 57 105 81 160 156 100 135 138 253 138 424 0
185 -42 309 -155 452 -40 51 -183 173 -202 173 -3 0 -29 11 -58 24 -29 13 -75
31 -103 39 -52 16 -213 28 -275 21z"/>
<path d="M5880 10925 l0 -5435 575 0 575 0 9 22 c5 13 21 50 36 83 44 98 52
117 80 180 14 33 30 69 35 80 5 11 21 47 35 80 15 33 33 74 40 90 7 17 25 57
40 90 48 108 53 119 84 188 17 38 31 70 31 72 0 2 14 34 31 72 37 81 66 147
84 188 7 17 27 61 44 98 17 38 31 70 31 72 0 2 18 43 40 90 22 47 40 88 40 90
0 3 11 28 24 57 52 114 86 190 86 193 0 2 18 43 40 90 22 47 40 88 40 90 0 3
34 79 86 193 13 29 24 55 24 58 0 3 16 40 36 82 20 42 42 91 49 107 35 78 63
144 81 187 10 27 24 48 30 48 6 0 21 -24 34 -52 12 -29 36 -81 51 -116 16 -35
29 -65 29 -67 0 -2 18 -43 40 -90 22 -47 40 -88 40 -90 0 -3 11 -28 24 -57 52
-114 86 -190 86 -193 0 -2 18 -43 40 -90 22 -47 40 -90 40 -94 0 -4 10 -28 23
-52 13 -24 40 -84 61 -134 21 -49 49 -112 61 -140 13 -27 37 -84 55 -125 85
-197 120 -277 181 -408 16 -35 29 -65 29 -67 0 -3 16 -39 35 -81 19 -41 35
-77 35 -79 0 -3 34 -81 86 -193 13 -29 24 -54 24 -57 0 -2 18 -43 40 -90 22
-47 40 -88 40 -90 0 -2 13 -32 29 -67 15 -35 39 -87 51 -116 l24 -52 573 0
573 0 0 5435 0 5435 -525 0 -525 0 0 -4396 c0 -2629 -4 -4393 -9 -4390 -5 4
-23 41 -41 84 -17 42 -35 86 -40 97 -5 11 -30 72 -55 135 -26 63 -55 134 -66
157 -10 24 -19 46 -19 49 0 3 -6 20 -14 37 -8 18 -35 84 -61 147 -25 63 -50
124 -55 135 -5 11 -23 56 -41 100 -17 44 -38 96 -46 115 -27 64 -31 74 -88
215 -31 77 -61 149 -65 160 -5 11 -30 72 -55 135 -26 63 -53 131 -61 150 -18
40 -24 56 -52 125 l-21 50 -463 3 -464 2 -22 -48 c-12 -27 -22 -52 -22 -56 0
-4 -7 -24 -16 -44 -26 -59 -31 -71 -80 -192 -43 -106 -62 -153 -84 -205 -4
-11 -22 -56 -40 -100 -17 -44 -38 -96 -46 -115 -28 -65 -32 -75 -64 -155 -17
-44 -40 -99 -51 -122 -10 -24 -19 -45 -19 -48 0 -4 -9 -27 -21 -53 -25 -59
-32 -76 -54 -132 -22 -56 -30 -76 -49 -120 -8 -19 -35 -87 -61 -150 -25 -63
-50 -124 -55 -135 -5 -11 -28 -66 -51 -122 -23 -57 -45 -103 -50 -103 -5 0 -9
1886 -9 4395 l0 4395 -525 0 -525 0 0 -5435z"/>
<path d="M14860 10925 l0 -5435 525 0 525 0 0 4460 c0 2514 4 4460 9 4460 4 0
41 -46 80 -102 102 -144 304 -436 439 -630 79 -114 204 -294 285 -410 31 -46
62 -90 67 -98 6 -8 42 -59 80 -113 39 -54 70 -102 70 -107 0 -4 3 -10 8 -12 7
-3 18 -19 185 -261 87 -127 177 -255 231 -332 29 -41 107 -154 190 -275 l86
-125 0 -3253 0 -3252 520 0 520 0 0 5460 0 5460 -520 0 -520 0 0 -1299 c0
-715 -4 -1302 -8 -1305 -14 -8 -26 6 -88 99 -32 50 -61 92 -64 95 -3 3 -27 39
-55 80 -27 41 -52 77 -55 80 -3 3 -36 50 -72 105 -37 55 -103 152 -148 215
-44 63 -83 122 -87 130 -4 8 -11 20 -16 25 -8 10 -68 97 -253 370 -52 77 -141
208 -198 290 -56 83 -145 213 -197 290 -53 77 -125 183 -161 235 -35 52 -98
145 -139 205 -41 61 -76 112 -79 115 -3 3 -45 65 -94 138 l-89 132 -489 0
-488 0 0 -5435z"/>
<path d="M26080 16344 c-82 -21 -207 -87 -273 -142 -111 -94 -181 -202 -236
-362 -17 -50 -25 -235 -13 -300 36 -190 130 -349 267 -450 141 -103 263 -143
435 -143 206 1 360 64 506 208 44 43 110 138 136 195 34 74 38 87 54 158 23
106 10 312 -25 387 -5 11 -18 38 -27 60 -81 184 -262 334 -470 389 -76 20
-276 20 -354 0z"/>
<path d="M12150 11125 l0 -4205 525 0 525 0 0 4205 0 4205 -525 0 -525 0 0
-4205z"/>
<path d="M25740 9685 l0 -4215 520 0 520 0 0 4215 0 4215 -520 0 -520 0 0
-4215z"/>
<path d="M31047 12723 c-4 -3 -7 -467 -7 -1030 l0 -1023 280 0 280 0 -2 1028
-3 1027 -271 3 c-149 1 -273 -1 -277 -5z"/>
<path d="M31215 10126 c-256 -52 -470 -187 -628 -398 -89 -118 -144 -238 -182
-403 -31 -133 -17 -412 25 -510 5 -11 12 -31 16 -45 11 -42 85 -193 110 -227
13 -17 24 -34 24 -37 0 -9 40 -56 124 -143 146 -152 316 -245 536 -293 64 -14
325 -8 410 9 255 51 497 197 606 367 51 80 52 79 -65 150 -57 35 -105 64 -107
64 -2 0 -55 32 -119 70 -64 39 -117 70 -119 70 -2 0 -13 -20 -26 -45 -19 -38
-79 -101 -125 -133 -14 -10 -62 -31 -115 -50 -52 -20 -243 -23 -281 -6 -13 6
-46 21 -72 33 -91 41 -207 176 -237 277 -40 135 -48 219 -29 334 44 274 221
440 468 440 174 0 327 -77 399 -201 l28 -49 181 128 c99 70 193 137 209 149
l29 22 -24 45 c-55 105 -203 235 -343 301 -81 39 -142 58 -253 81 -85 17 -353
17 -440 0z"/>
<path d="M30630 6500 l0 -1030 735 0 735 0 0 245 0 245 -452 2 -453 3 -3 145
c-1 80 0 155 3 168 l5 22 370 0 370 0 0 225 0 225 -372 2 -373 3 0 145 0 145
438 3 437 2 0 240 0 240 -720 0 -720 0 0 -1030z"/>
</g>
</svg>
